REM DIRINDEX 1\2,1\3,1\4
REM DIRNAME cjc038,folder01,folder02,folder03
TITLE ""
FILE "DISC1Track15.mp3" MP3
  TRACK 01 AUDIO
    TITLE "4:cjc038_0512"
    INDEX 01 00:00:00
  TRACK 02 AUDIO
    TITLE "0:"
    INDEX 01 00:02:43
  TRACK 03 AUDIO
    TITLE "2:cjc038_0513"
    INDEX 01 00:04:03
  TRACK 04 AUDIO
    TITLE "0:"
    INDEX 01 00:08:58
  TRACK 05 AUDIO
    TITLE "3:cjc038_0514"
    INDEX 01 00:08:64
  TRACK 06 AUDIO
    TITLE "0:"
    INDEX 01 00:13:37
  TRACK 07 AUDIO
    TITLE "2:cjc038_0515"
    INDEX 01 00:14:17
  TRACK 08 AUDIO
    TITLE "0:"
    INDEX 01 00:18:46
  TRACK 09 AUDIO
    TITLE "3:cjc038_0516"
    INDEX 01 00:18:56
  TRACK 10 AUDIO
    TITLE "0:"
    INDEX 01 00:23:04
  TRACK 11 AUDIO
    TITLE "2:cjc038_0517"
    INDEX 01 00:23:57
  TRACK 12 AUDIO
    TITLE "0:"
    INDEX 01 00:25:13
  TRACK 13 AUDIO
    TITLE "2:cjc038_0518"
    INDEX 01 00:25:17
  TRACK 14 AUDIO
    TITLE "0:"
    INDEX 01 00:27:20
  TRACK 15 AUDIO
    TITLE "3:cjc038_0519"
    INDEX 01 00:27:36
  TRACK 16 AUDIO
    TITLE "0:"
    INDEX 01 00:28:47
  TRACK 17 AUDIO
    TITLE "3:cjc038_0520"
    INDEX 01 00:28:64
  TRACK 18 AUDIO
    TITLE "0:"
    INDEX 01 00:30:55
  TRACK 19 AUDIO
    TITLE "2:cjc038_0521"
    INDEX 01 00:31:37
  TRACK 20 AUDIO
    TITLE "0:"
    INDEX 01 00:33:01
  TRACK 21 AUDIO
    TITLE "2:cjc038_0522"
    INDEX 01 00:33:03
  TRACK 22 AUDIO
    TITLE "0:"
    INDEX 01 00:35:31
  TRACK 23 AUDIO
    TITLE "3:cjc038_0523"
    INDEX 01 00:35:41
  TRACK 24 AUDIO
    TITLE "0:"
    INDEX 01 00:37:01
  TRACK 25 AUDIO
    TITLE "3:cjc038_0524"
    INDEX 01 00:37:08
  TRACK 26 AUDIO
    TITLE "0:"
    INDEX 01 00:39:29
  TRACK 27 AUDIO
    TITLE "2:cjc038_0525"
    INDEX 01 00:41:00
  TRACK 28 AUDIO
    TITLE "0:"
    INDEX 01 00:42:43
  TRACK 29 AUDIO
    TITLE "3:cjc038_0526"
    INDEX 01 00:42:51
  TRACK 30 AUDIO
    TITLE "0:"
    INDEX 01 00:44:07
  TRACK 31 AUDIO
    TITLE "2:cjc038_0527"
    INDEX 01 00:44:60
  TRACK 32 AUDIO
    TITLE "0:"
    INDEX 01 00:46:54
  TRACK 33 AUDIO
    TITLE "3:cjc038_0528"
    INDEX 01 00:46:58
  TRACK 34 AUDIO
    TITLE "0:"
    INDEX 01 00:48:46
  TRACK 35 AUDIO
    TITLE "2:cjc038_0529"
    INDEX 01 00:50:23
  TRACK 36 AUDIO
    TITLE "0:"
    INDEX 01 00:53:31
  TRACK 37 AUDIO
    TITLE "3:cjc038_0530"
    INDEX 01 00:53:47
  TRACK 38 AUDIO
    TITLE "0:"
    INDEX 01 00:56:47
  TRACK 39 AUDIO
    TITLE "2:cjc038_0531"
    INDEX 01 00:57:19
  TRACK 40 AUDIO
    TITLE "0:"
    INDEX 01 01:01:05
  TRACK 41 AUDIO
    TITLE "3:cjc038_0532"
    INDEX 01 01:01:11
  TRACK 42 AUDIO
    TITLE "0:"
    INDEX 01 01:04:64
  TRACK 43 AUDIO
    TITLE "2:cjc038_0533"
    INDEX 01 01:05:44
  TRACK 44 AUDIO
    TITLE "0:"
    INDEX 01 01:09:26
  TRACK 45 AUDIO
    TITLE "3:cjc038_0534"
    INDEX 01 01:09:32
  TRACK 46 AUDIO
    TITLE "0:"
    INDEX 01 01:13:04
  TRACK 47 AUDIO
    TITLE "2:cjc038_0535"
    INDEX 01 01:14:57
  TRACK 48 AUDIO
    TITLE "0:"
    INDEX 01 01:16:34
  TRACK 49 AUDIO
    TITLE "3:cjc038_0536"
    INDEX 01 01:16:44
  TRACK 50 AUDIO
    TITLE "0:"
    INDEX 01 01:18:02
  TRACK 51 AUDIO
    TITLE "2:cjc038_0537"
    INDEX 01 01:18:68
  TRACK 52 AUDIO
    TITLE "0:"
    INDEX 01 01:20:49
  TRACK 53 AUDIO
    TITLE "3:cjc038_0538"
    INDEX 01 01:20:57
  TRACK 54 AUDIO
    TITLE "0:"
    INDEX 01 01:22:19
  TRACK 55 AUDIO
    TITLE "2:cjc038_0539"
    INDEX 01 01:24:04
  TRACK 56 AUDIO
    TITLE "0:"
    INDEX 01 01:25:64
  TRACK 57 AUDIO
    TITLE "2:cjc038_0540"
    INDEX 01 01:25:70
  TRACK 58 AUDIO
    TITLE "0:"
    INDEX 01 01:28:22
  TRACK 59 AUDIO
    TITLE "3:cjc038_0541"
    INDEX 01 01:28:27
  TRACK 60 AUDIO
    TITLE "0:"
    INDEX 01 01:30:11
  TRACK 61 AUDIO
    TITLE "3:cjc038_0542"
    INDEX 01 01:30:13
  TRACK 62 AUDIO
    TITLE "0:"
    INDEX 01 01:32:37
  TRACK 63 AUDIO
    TITLE "2:cjc038_0543"
    INDEX 01 01:33:15
  TRACK 64 AUDIO
    TITLE "0:"
    INDEX 01 01:35:41
  TRACK 65 AUDIO
    TITLE "2:cjc038_0544"
    INDEX 01 01:35:43
  TRACK 66 AUDIO
    TITLE "0:"
    INDEX 01 01:36:70
  TRACK 67 AUDIO
    TITLE "3:cjc038_0545"
    INDEX 01 01:37:03
  TRACK 68 AUDIO
    TITLE "0:"
    INDEX 01 01:39:25
  TRACK 69 AUDIO
    TITLE "3:cjc038_0546"
    INDEX 01 01:39:27
  TRACK 70 AUDIO
    TITLE "0:"
    INDEX 01 01:40:50
  TRACK 71 AUDIO
    TITLE "2:cjc038_0547"
    INDEX 01 01:41:28
  TRACK 72 AUDIO
    TITLE "0:"
    INDEX 01 01:44:40
  TRACK 73 AUDIO
    TITLE "3:cjc038_0548"
    INDEX 01 01:44:50
  TRACK 74 AUDIO
    TITLE "0:"
    INDEX 01 01:47:50
  TRACK 75 AUDIO
    TITLE "2:cjc038_0549"
    INDEX 01 01:49:26
  TRACK 76 AUDIO
    TITLE "0:"
    INDEX 01 01:52:08
  TRACK 77 AUDIO
    TITLE "3:cjc038_0550"
    INDEX 01 01:52:14
  TRACK 78 AUDIO
    TITLE "0:"
    INDEX 01 01:54:64
  TRACK 79 AUDIO
    TITLE "2:cjc038_0551"
    INDEX 01 01:55:36
  TRACK 80 AUDIO
    TITLE "0:"
    INDEX 01 01:58:01
  TRACK 81 AUDIO
    TITLE "3:cjc038_0552"
    INDEX 01 01:58:09
  TRACK 82 AUDIO
    TITLE "0:"
    INDEX 01 02:00:31
  TRACK 83 AUDIO
    TITLE "2:cjc038_0553"
    INDEX 01 02:01:15
  TRACK 84 AUDIO
    TITLE "0:"
    INDEX 01 02:04:04
  TRACK 85 AUDIO
    TITLE "3:cjc038_0554"
    INDEX 01 02:04:10
  TRACK 86 AUDIO
    TITLE "0:"
    INDEX 01 02:06:55
  TRACK 87 AUDIO
    TITLE "2:cjc038_0555"
    INDEX 01 02:08:41
  TRACK 88 AUDIO
    TITLE "0:"
    INDEX 01 02:10:04
  TRACK 89 AUDIO
    TITLE "2:cjc038_0556"
    INDEX 01 02:10:24
  TRACK 90 AUDIO
    TITLE "0:"
    INDEX 01 02:12:01
  TRACK 91 AUDIO
    TITLE "3:cjc038_0557"
    INDEX 01 02:12:09
  TRACK 92 AUDIO
    TITLE "0:"
    INDEX 01 02:13:34
  TRACK 93 AUDIO
    TITLE "3:cjc038_0558"
    INDEX 01 02:13:63
  TRACK 94 AUDIO
    TITLE "0:"
    INDEX 01 02:15:35
  TRACK 95 AUDIO
    TITLE "2:cjc038_0559"
    INDEX 01 02:16:13
  TRACK 96 AUDIO
    TITLE "0:"
    INDEX 01 02:17:73
  TRACK 97 AUDIO
    TITLE "2:cjc038_0560"
    INDEX 01 02:18:00
  TRACK 98 AUDIO
    TITLE "0:"
    INDEX 01 02:19:52
  TRACK 99 AUDIO
    TITLE "3:cjc038_0561"
    INDEX 01 02:19:58
  TRACK 100 AUDIO
    TITLE "0:"
    INDEX 01 02:21:33
  TRACK 101 AUDIO
    TITLE "3:cjc038_0562"
    INDEX 01 02:21:45
  TRACK 102 AUDIO
    TITLE "0:"
    INDEX 01 02:23:13
  TRACK 103 AUDIO
    TITLE "2:cjc038_0563"
    INDEX 01 02:23:68
  TRACK 104 AUDIO
    TITLE "0:"
    INDEX 01 02:27:16
  TRACK 105 AUDIO
    TITLE "3:cjc038_0564"
    INDEX 01 02:27:26
  TRACK 106 AUDIO
    TITLE "0:"
    INDEX 01 02:30:40
  TRACK 107 AUDIO
    TITLE "2:cjc038_0565"
    INDEX 01 02:31:22
  TRACK 108 AUDIO
    TITLE "0:"
    INDEX 01 02:35:55
  TRACK 109 AUDIO
    TITLE "3:cjc038_0566"
    INDEX 01 02:35:69
  TRACK 110 AUDIO
    TITLE "0:"
    INDEX 01 02:40:07
  TRACK 111 AUDIO
    TITLE "2:cjc038_0567"
    INDEX 01 02:40:66
  TRACK 112 AUDIO
    TITLE "0:"
    INDEX 01 02:43:66
  TRACK 113 AUDIO
    TITLE "2:cjc038_0568"
    INDEX 01 02:43:68
  TRACK 114 AUDIO
    TITLE "0:"
    INDEX 01 02:46:67
  TRACK 115 AUDIO
    TITLE "3:cjc038_0569"
    INDEX 01 02:47:02
  TRACK 116 AUDIO
    TITLE "0:"
    INDEX 01 02:50:00
  TRACK 117 AUDIO
    TITLE "3:cjc038_0570"
    INDEX 01 02:50:02
  TRACK 118 AUDIO
    TITLE "0:"
    INDEX 01 02:52:60
  TRACK 119 AUDIO
    TITLE "2:cjc038_0571"
    INDEX 01 02:53:49
  TRACK 120 AUDIO
    TITLE "0:"
    INDEX 01 02:55:25
  TRACK 121 AUDIO
    TITLE "3:cjc038_0572"
    INDEX 01 02:55:28
  TRACK 122 AUDIO
    TITLE "0:"
    INDEX 01 02:56:61
  TRACK 123 AUDIO
    TITLE "2:cjc038_0573"
    INDEX 01 02:57:47
  TRACK 124 AUDIO
    TITLE "0:"
    INDEX 01 02:59:16
  TRACK 125 AUDIO
    TITLE "3:cjc038_0574"
    INDEX 01 02:59:28
  TRACK 126 AUDIO
    TITLE "0:"
    INDEX 01 03:00:65
  TRACK 127 AUDIO
    TITLE "2:cjc038_0575"
    INDEX 01 03:01:43
  TRACK 128 AUDIO
    TITLE "0:"
    INDEX 01 03:03:26
  TRACK 129 AUDIO
    TITLE "3:cjc038_0576"
    INDEX 01 03:03:32
  TRACK 130 AUDIO
    TITLE "0:"
    INDEX 01 03:04:72
  TRACK 131 AUDIO
    TITLE "2:cjc038_0577"
    INDEX 01 03:05:62
  TRACK 132 AUDIO
    TITLE "0:"
    INDEX 01 03:07:41
  TRACK 133 AUDIO
    TITLE "3:cjc038_0578"
    INDEX 01 03:07:47
  TRACK 134 AUDIO
    TITLE "0:"
    INDEX 01 03:09:13
  TRACK 135 AUDIO
    TITLE "2:cjc038_0579"
    INDEX 01 03:09:72
  TRACK 136 AUDIO
    TITLE "0:"
    INDEX 01 03:11:22
  TRACK 137 AUDIO
    TITLE "2:cjc038_0580"
    INDEX 01 03:11:27
  TRACK 138 AUDIO
    TITLE "0:"
    INDEX 01 03:12:64
  TRACK 139 AUDIO
    TITLE "3:cjc038_0581"
    INDEX 01 03:12:72
  TRACK 140 AUDIO
    TITLE "0:"
    INDEX 01 03:14:16
  TRACK 141 AUDIO
    TITLE "3:cjc038_0582"
    INDEX 01 03:14:22
  TRACK 142 AUDIO
    TITLE "0:"
    INDEX 01 03:15:55
  TRACK 143 AUDIO
    TITLE "2:cjc038_0583"
    INDEX 01 03:16:33
  TRACK 144 AUDIO
    TITLE "0:"
    INDEX 01 03:19:31
  TRACK 145 AUDIO
    TITLE "3:cjc038_0584"
    INDEX 01 03:19:37
  TRACK 146 AUDIO
    TITLE "0:"
    INDEX 01 03:22:23
  TRACK 147 AUDIO
    TITLE "2:cjc038_0585"
    INDEX 01 03:23:07
  TRACK 148 AUDIO
    TITLE "0:"
    INDEX 01 03:25:61
  TRACK 149 AUDIO
    TITLE "3:cjc038_0586"
    INDEX 01 03:25:71
  TRACK 150 AUDIO
    TITLE "0:"
    INDEX 01 03:28:46
  TRACK 151 AUDIO
    TITLE "2:cjc038_0587"
    INDEX 01 03:29:20
  TRACK 152 AUDIO
    TITLE "0:"
    INDEX 01 03:32:28
  TRACK 153 AUDIO
    TITLE "3:cjc038_0588"
    INDEX 01 03:32:34
  TRACK 154 AUDIO
    TITLE "0:"
    INDEX 01 03:35:38
  TRACK 155 AUDIO
    TITLE "2:cjc038_0589"
    INDEX 01 03:36:14
  TRACK 156 AUDIO
    TITLE "0:"
    INDEX 01 03:39:36
  TRACK 157 AUDIO
    TITLE "3:cjc038_0590"
    INDEX 01 03:39:39
  TRACK 158 AUDIO
    TITLE "0:"
    INDEX 01 03:42:50
  TRACK 159 AUDIO
    TITLE "2:cjc038_0591"
    INDEX 01 03:43:33
  TRACK 160 AUDIO
    TITLE "0:"
    INDEX 01 03:46:14
  TRACK 161 AUDIO
    TITLE "3:cjc038_0592"
    INDEX 01 03:46:22
  TRACK 162 AUDIO
    TITLE "0:"
    INDEX 01 03:48:68
  TRACK 163 AUDIO
    TITLE "2:cjc038_0593"
    INDEX 01 03:49:48
  TRACK 164 AUDIO
    TITLE "0:"
    INDEX 01 03:53:10
  TRACK 165 AUDIO
    TITLE "3:cjc038_0594"
    INDEX 01 03:53:18
  TRACK 166 AUDIO
    TITLE "0:"
    INDEX 01 03:56:34
  TRACK 167 AUDIO
    TITLE "2:cjc038_0595"
    INDEX 01 03:57:26
  TRACK 168 AUDIO
    TITLE "0:"
    INDEX 01 04:00:59
  TRACK 169 AUDIO
    TITLE "3:cjc038_0596"
    INDEX 01 04:00:65
  TRACK 170 AUDIO
    TITLE "0:"
    INDEX 01 04:04:16
  TRACK 171 AUDIO
    TITLE "2:cjc038_0597"
    INDEX 01 04:05:64
  TRACK 172 AUDIO
    TITLE "0:"
    INDEX 01 04:08:37
  TRACK 173 AUDIO
    TITLE "3:cjc038_0598"
    INDEX 01 04:08:47
  TRACK 174 AUDIO
    TITLE "0:"
    INDEX 01 04:11:10
  TRACK 175 AUDIO
    TITLE "2:cjc038_0599"
    INDEX 01 04:11:67
  TRACK 176 AUDIO
    TITLE "0:"
    INDEX 01 04:15:16
  TRACK 177 AUDIO
    TITLE "3:cjc038_0600"
    INDEX 01 04:15:24
  TRACK 178 AUDIO
    TITLE "0:"
    INDEX 01 04:18:34
  TRACK 179 AUDIO
    TITLE "2:cjc038_0601"
    INDEX 01 04:19:17
  TRACK 180 AUDIO
    TITLE "0:"
    INDEX 01 04:21:54
  TRACK 181 AUDIO
    TITLE "3:cjc038_0602"
    INDEX 01 04:21:63
  TRACK 182 AUDIO
    TITLE "0:"
    INDEX 01 04:24:13
  TRACK 183 AUDIO
    TITLE "2:cjc038_0603"
    INDEX 01 04:24:71
  TRACK 184 AUDIO
    TITLE "0:"
    INDEX 01 04:28:01
  TRACK 185 AUDIO
    TITLE "3:cjc038_0604"
    INDEX 01 04:28:11
  TRACK 186 AUDIO
    TITLE "0:"
    INDEX 01 04:30:68
  TRACK 187 AUDIO
    TITLE "2:cjc038_0605"
    INDEX 01 04:31:58
  TRACK 188 AUDIO
    TITLE "0:"
    INDEX 01 04:34:46
  TRACK 189 AUDIO
    TITLE "3:cjc038_0606"
    INDEX 01 04:34:56
  TRACK 190 AUDIO
    TITLE "0:"
    INDEX 01 04:37:25
  TRACK 191 AUDIO
    TITLE "2:cjc038_0607"
    INDEX 01 04:39:10
  TRACK 192 AUDIO
    TITLE "0:"
    INDEX 01 04:42:32
  TRACK 193 AUDIO
    TITLE "3:cjc038_0608"
    INDEX 01 04:42:40
  TRACK 194 AUDIO
    TITLE "0:"
    INDEX 01 04:45:52
  TRACK 195 AUDIO
    TITLE "2:cjc038_0609"
    INDEX 01 04:46:32
  TRACK 196 AUDIO
    TITLE "0:"
    INDEX 01 04:49:52
  TRACK 197 AUDIO
    TITLE "3:cjc038_0610"
    INDEX 01 04:49:64
  TRACK 198 AUDIO
    TITLE "0:"
    INDEX 01 04:53:03
  TRACK 199 AUDIO
    TITLE "2:cjc038_0611"
    INDEX 01 04:53:54
  TRACK 200 AUDIO
    TITLE "0:"
    INDEX 01 04:55:25
  TRACK 201 AUDIO
    TITLE "2:cjc038_0612"
    INDEX 01 04:55:29
  TRACK 202 AUDIO
    TITLE "0:"
    INDEX 01 04:57:34
  TRACK 203 AUDIO
    TITLE "3:cjc038_0613"
    INDEX 01 04:57:42
  TRACK 204 AUDIO
    TITLE "0:"
    INDEX 01 04:59:07
  TRACK 205 AUDIO
    TITLE "3:cjc038_0614"
    INDEX 01 04:59:17
  TRACK 206 AUDIO
    TITLE "0:"
    INDEX 01 05:01:06
  TRACK 207 AUDIO
    TITLE "2:cjc038_0615"
    INDEX 01 05:01:69
  TRACK 208 AUDIO
    TITLE "0:"
    INDEX 01 05:04:00
  TRACK 209 AUDIO
    TITLE "2:cjc038_0616"
    INDEX 01 05:04:32
  TRACK 210 AUDIO
    TITLE "0:"
    INDEX 01 05:06:64
  TRACK 211 AUDIO
    TITLE "3:cjc038_0617"
    INDEX 01 05:06:70
  TRACK 212 AUDIO
    TITLE "0:"
    INDEX 01 05:08:61
  TRACK 213 AUDIO
    TITLE "3:cjc038_0618"
    INDEX 01 05:09:33
  TRACK 214 AUDIO
    TITLE "0:"
    INDEX 01 05:11:53
  TRACK 215 AUDIO
    TITLE "2:cjc038_0619"
    INDEX 01 05:13:39
  TRACK 216 AUDIO
    TITLE "0:"
    INDEX 01 05:18:34
  TRACK 217 AUDIO
    TITLE "2:cjc038_0620"
    INDEX 01 05:18:61
  TRACK 218 AUDIO
    TITLE "0:"
    INDEX 01 05:25:50
  TRACK 219 AUDIO
    TITLE "2:cjc038_0621"
    INDEX 01 05:26:43
  TRACK 220 AUDIO
    TITLE "0:"
    INDEX 01 05:32:46
  TRACK 221 AUDIO
    TITLE "3:cjc038_0622"
    INDEX 01 05:32:52
  TRACK 222 AUDIO
    TITLE "0:"
    INDEX 01 05:37:47
  TRACK 223 AUDIO
    TITLE "3:cjc038_0623"
    INDEX 01 05:38:01
  TRACK 224 AUDIO
    TITLE "0:"
    INDEX 01 05:44:49
  TRACK 225 AUDIO
    TITLE "3:cjc038_0624"
    INDEX 01 05:45:58
  TRACK 226 AUDIO
    TITLE "0:"
    INDEX 01 05:51:43
  TRACK 227 AUDIO
    TITLE "2:cjc038_0625"
    INDEX 01 05:52:29
  TRACK 228 AUDIO
    TITLE "0:"
    INDEX 01 05:55:25
  TRACK 229 AUDIO
    TITLE "3:cjc038_0626"
    INDEX 01 05:55:33
  TRACK 230 AUDIO
    TITLE "0:"
    INDEX 01 05:58:22
  TRACK 231 AUDIO
    TITLE "2:cjc038_0627"
    INDEX 01 05:58:71
  TRACK 232 AUDIO
    TITLE "0:"
    INDEX 01 06:01:32
  TRACK 233 AUDIO
    TITLE "3:cjc038_0628"
    INDEX 01 06:01:36
  TRACK 234 AUDIO
    TITLE "0:"
    INDEX 01 06:03:64
  TRACK 235 AUDIO
    TITLE "2:cjc038_0629"
    INDEX 01 06:04:46
  TRACK 236 AUDIO
    TITLE "0:"
    INDEX 01 06:06:64
  TRACK 237 AUDIO
    TITLE "3:cjc038_0630"
    INDEX 01 06:06:74
  TRACK 238 AUDIO
    TITLE "0:"
    INDEX 01 06:09:14
  TRACK 239 AUDIO
    TITLE "2:cjc038_0631"
    INDEX 01 06:09:65
  TRACK 240 AUDIO
    TITLE "0:"
    INDEX 01 06:12:22
  TRACK 241 AUDIO
    TITLE "3:cjc038_0632"
    INDEX 01 06:12:30
  TRACK 242 AUDIO
    TITLE "0:"
    INDEX 01 06:14:52
